<svg width="50" height="50" viewBox="0 0 50 50" fill="none" xmlns="http://www.w3.org/2000/svg">
<g clip-path="url(#clip0_176_3352)">
<path d="M20.3763 19.861C24.9787 19.861 28.7096 16.13 28.7096 11.5277C28.7096 6.9253 24.9787 3.19434 20.3763 3.19434C15.7739 3.19434 12.043 6.9253 12.043 11.5277C12.043 16.13 15.7739 19.861 20.3763 19.861Z" fill="#11A900"/>
<path d="M22.8329 44.194C22.3739 43.7401 22.0744 43.1496 21.9793 42.5111C21.8841 41.8726 21.9984 41.2204 22.3051 40.6524L23.0412 39.2635L21.5273 38.8051C20.91 38.6119 20.3725 38.2226 19.9966 37.6962C19.6206 37.1698 19.4266 36.5351 19.444 35.8885V33.0413C19.4428 32.3975 19.6488 31.7704 20.0315 31.2526C20.4141 30.7349 20.9532 30.354 21.569 30.1663L23.0829 29.7079L22.3607 28.319C22.063 27.7587 21.9497 27.1188 22.037 26.4903C22.1243 25.8619 22.4077 25.277 22.8468 24.819C21.7783 24.6792 20.7022 24.605 19.6246 24.5968C16.4417 24.5219 13.2815 25.1502 10.3693 26.4371C7.45721 27.7239 4.86492 29.6374 2.77734 32.0413V42.8051C2.77734 43.1735 2.92367 43.5268 3.18414 43.7872C3.44461 44.0477 3.79788 44.194 4.16623 44.194H22.8329Z" fill="#11A900"/>
<path d="M46.8039 32.5829L44.0261 31.7496C43.8339 31.0635 43.5637 30.4018 43.2205 29.7774L44.6094 27.194C44.6631 27.0981 44.6827 26.9869 44.665 26.8784C44.6474 26.77 44.5935 26.6707 44.5122 26.5968L42.4983 24.569C42.4207 24.4935 42.3218 24.4437 42.215 24.4263C42.1082 24.4089 41.9986 24.4248 41.9011 24.4718L39.3316 25.8607C38.6993 25.5168 38.0339 25.2376 37.3455 25.0274L36.4983 22.2496C36.461 22.1472 36.3929 22.0588 36.3034 21.9966C36.2139 21.9344 36.1073 21.9015 35.9983 21.9024H33.1094C33.0011 21.9054 32.8964 21.9417 32.8094 22.0063C32.7224 22.0709 32.6575 22.1607 32.6233 22.2635L31.79 25.0412C31.089 25.2471 30.4134 25.5313 29.7761 25.8885L27.2622 24.4996C27.1644 24.4476 27.0529 24.4277 26.9432 24.4427C26.8335 24.4576 26.7313 24.5067 26.6511 24.5829L24.6094 26.5829C24.529 26.6604 24.476 26.7619 24.4585 26.8722C24.441 26.9825 24.4598 27.0954 24.5122 27.194L25.9011 29.7218C25.5286 30.3489 25.2259 31.0149 24.9983 31.7079L22.2205 32.5551C22.1154 32.5855 22.0232 32.6495 21.958 32.7373C21.8928 32.8251 21.8581 32.9319 21.8594 33.0412V35.8885C21.8581 35.9978 21.8928 36.1046 21.958 36.1924C22.0232 36.2802 22.1154 36.3442 22.2205 36.3746L24.9983 37.2218C25.2066 37.902 25.4859 38.5584 25.8316 39.1801L24.4427 41.819C24.3904 41.9176 24.3715 42.0306 24.3891 42.1409C24.4066 42.2511 24.4596 42.3527 24.54 42.4301L26.6094 44.444C26.6897 44.5202 26.7919 44.5693 26.9015 44.5842C27.0112 44.5992 27.1228 44.5793 27.2205 44.5274L29.8177 43.1385C30.4354 43.4718 31.0874 43.7372 31.7622 43.9301L32.5955 46.7774C32.6305 46.8824 32.6976 46.9737 32.7873 47.0386C32.877 47.1034 32.9848 47.1383 33.0955 47.1385H35.9427C36.051 47.1354 36.1558 47.0992 36.2427 47.0346C36.3297 46.97 36.3947 46.8802 36.4289 46.7774L37.2622 43.9301C37.9286 43.7385 38.5715 43.4729 39.1789 43.1385L41.8039 44.5274C41.9016 44.5793 42.0132 44.5992 42.1228 44.5842C42.2325 44.5693 42.3347 44.5202 42.415 44.444L44.4427 42.4301C44.519 42.3499 44.568 42.2477 44.583 42.138C44.5979 42.0284 44.578 41.9168 44.5261 41.819L43.1372 39.2079C43.4687 38.5991 43.734 37.9565 43.9289 37.2912L46.7066 36.444C46.811 36.4105 46.9027 36.346 46.9697 36.2592C47.0366 36.1724 47.0757 36.0674 47.0816 35.9579V33.0829C47.085 32.9822 47.061 32.8825 47.012 32.7944C46.9631 32.7063 46.8911 32.6332 46.8039 32.5829ZM34.54 39.1385C33.6219 39.1412 32.7236 38.8715 31.959 38.3634C31.1943 37.8554 30.5975 37.1319 30.2443 36.2845C29.8911 35.4371 29.7972 34.5039 29.9746 33.6031C30.1521 32.7024 30.5928 31.8745 31.241 31.2243C31.8892 30.5742 32.7157 30.131 33.616 29.9509C34.5162 29.7707 35.4496 29.8618 36.2981 30.2125C37.1465 30.5632 37.8718 31.1578 38.3822 31.9209C38.8925 32.6841 39.165 33.5815 39.165 34.4996C39.165 35.7275 38.6781 36.9053 37.8112 37.7749C36.9442 38.6444 35.7679 39.1348 34.54 39.1385Z" fill="#11A900"/>
</g>
<defs>
<clipPath id="clip0_176_3352">
<rect width="50" height="50" fill="white"/>
</clipPath>
</defs>
</svg>
