<svg width="30" height="30" viewBox="0 0 30 30" fill="none" xmlns="http://www.w3.org/2000/svg">
<path d="M15.4137 6.50648C15.6774 6.24313 16.0348 6.09521 16.4075 6.09521C16.7801 6.09521 17.1376 6.24313 17.4012 6.50648L25.37 14.4752C25.6333 14.7389 25.7812 15.0963 25.7812 15.469C25.7812 15.8416 25.6333 16.1991 25.37 16.4627L17.4012 24.4315C17.1347 24.6802 16.782 24.8157 16.4175 24.8094C16.0531 24.8031 15.7053 24.6555 15.4475 24.3977C15.1897 24.14 15.0421 23.7922 15.0358 23.4277C15.0295 23.0632 15.165 22.7105 15.4137 22.444L20.9825 16.8752H7.03249C6.65953 16.8752 6.30184 16.7271 6.03812 16.4633C5.7744 16.1996 5.62624 15.8419 5.62624 15.469C5.62624 15.096 5.7744 14.7383 6.03812 14.4746C6.30184 14.2109 6.65953 14.0627 7.03249 14.0627H20.9825L15.4137 8.49398C15.1504 8.23031 15.0025 7.87288 15.0025 7.50023C15.0025 7.12757 15.1504 6.77015 15.4137 6.50648Z" fill="#11A900"/>
</svg>
