<svg width="24" height="24" viewBox="0 0 24 24" fill="none" xmlns="http://www.w3.org/2000/svg">
<path d="M3.00057 5.00038H21.0006C21.1828 5.00095 21.3615 5.05122 21.5173 5.14576C21.673 5.2403 21.8001 5.37555 21.8848 5.53694C21.9694 5.69832 22.0085 5.87974 21.9977 6.06167C21.9869 6.24359 21.9267 6.41913 21.8236 6.56938L12.8236 19.5694C12.4506 20.1084 11.5526 20.1084 11.1786 19.5694L2.17857 6.56938C2.0744 6.41944 2.01331 6.24381 2.00194 6.06159C1.99057 5.87936 2.02936 5.6975 2.11409 5.53578C2.19882 5.37405 2.32625 5.23863 2.48254 5.14424C2.63883 5.04985 2.81799 5.0001 3.00057 5.00038Z" fill="white"/>
</svg>
