<svg width="56" height="56" viewBox="0 0 56 56" fill="none" xmlns="http://www.w3.org/2000/svg">
<path d="M18.6667 22.1641C17.8931 22.1641 17.1513 22.4714 16.6043 23.0183C16.0573 23.5653 15.75 24.3072 15.75 25.0807C15.75 25.8543 16.0573 26.5961 16.6043 27.1431C17.1513 27.6901 17.8931 27.9974 18.6667 27.9974C19.4402 27.9974 20.1821 27.6901 20.7291 27.1431C21.276 26.5961 21.5833 25.8543 21.5833 25.0807C21.5833 24.3072 21.276 23.5653 20.7291 23.0183C20.1821 22.4714 19.4402 22.1641 18.6667 22.1641ZM28 22.1641C27.2265 22.1641 26.4846 22.4714 25.9376 23.0183C25.3906 23.5653 25.0833 24.3072 25.0833 25.0807C25.0833 25.8543 25.3906 26.5961 25.9376 27.1431C26.4846 27.6901 27.2265 27.9974 28 27.9974C28.7735 27.9974 29.5154 27.6901 30.0624 27.1431C30.6094 26.5961 30.9167 25.8543 30.9167 25.0807C30.9167 24.3072 30.6094 23.5653 30.0624 23.0183C29.5154 22.4714 28.7735 22.1641 28 22.1641ZM34.4167 25.0807C34.4167 24.3072 34.724 23.5653 35.2709 23.0183C35.8179 22.4714 36.5598 22.1641 37.3333 22.1641C38.1069 22.1641 38.8487 22.4714 39.3957 23.0183C39.9427 23.5653 40.25 24.3072 40.25 25.0807C40.25 25.8543 39.9427 26.5961 39.3957 27.1431C38.8487 27.6901 38.1069 27.9974 37.3333 27.9974C36.5598 27.9974 35.8179 27.6901 35.2709 27.1431C34.724 26.5961 34.4167 25.8543 34.4167 25.0807Z" fill="#192B1A"/>
<path fill-rule="evenodd" clip-rule="evenodd" d="M37.5654 10.7158C31.2795 10.1799 24.9609 10.1487 18.67 10.6224L18.2197 10.6574C15.3273 10.8757 12.6242 12.1786 10.6516 14.3052C8.679 16.4319 7.58263 19.2252 7.58203 22.1258V41.9988C7.5823 42.3013 7.66099 42.5986 7.81042 42.8617C7.95986 43.1247 8.17494 43.3445 8.43466 43.4996C8.69439 43.6548 8.9899 43.7399 9.29235 43.7468C9.59481 43.7536 9.89387 43.682 10.1604 43.5388L19.2837 38.6364C19.709 38.4078 20.1845 38.2883 20.6674 38.2888H41.6114C44.2527 38.2888 46.516 36.3988 46.9897 33.8018C47.951 28.5354 48.0257 23.1454 47.2137 17.8534L46.9757 16.2924C46.7641 14.9134 46.095 13.6455 45.076 12.6924C44.057 11.7394 42.7472 11.1567 41.357 11.0378L37.5654 10.7158ZM18.936 14.1131C25.0403 13.6518 31.1718 13.6814 37.2714 14.2018L41.0607 14.5261C42.3114 14.6334 43.3287 15.5831 43.5177 16.8244L43.758 18.3831C44.5081 23.291 44.4371 28.2895 43.548 33.1741C43.4668 33.6277 43.2284 34.0382 42.8747 34.3335C42.521 34.6287 42.0745 34.79 41.6137 34.7888H20.6674C19.607 34.789 18.5632 35.0519 17.6294 35.5541L11.082 39.0728V22.1258C11.0822 20.1079 11.8445 18.1645 13.2165 16.6847C14.5885 15.205 16.4689 14.2982 18.481 14.1458L18.936 14.1131Z" fill="#192B1A"/>
</svg>
