<svg width="230" height="144" viewBox="0 0 230 144" fill="none" xmlns="http://www.w3.org/2000/svg">
<path d="M80.5013 122.916L115.001 88.416L149.501 122.916L162.918 109.499L128.418 74.9993L162.918 40.4993L149.501 27.0827L115.001 61.5827L80.5013 27.0827L67.0846 40.4993L101.585 74.9993L67.0846 109.499L80.5013 122.916ZM115.001 170.833C101.744 170.833 89.286 168.315 77.6263 163.281C65.9666 158.247 55.8242 151.42 47.1992 142.801C38.5742 134.183 31.7477 124.04 26.7196 112.374C21.6916 100.708 19.1744 88.2499 19.168 74.9993C19.1616 61.7488 21.6788 49.2905 26.7196 37.6244C31.7605 25.9582 38.587 15.8159 47.1992 7.19727C55.8115 -1.42134 65.9538 -8.24787 77.6263 -13.2823C89.2988 -18.3168 101.757 -20.834 115.001 -20.834C128.245 -20.834 140.704 -18.3168 152.376 -13.2823C164.049 -8.24787 174.191 -1.42134 182.803 7.19727C191.416 15.8159 198.245 25.9582 203.293 37.6244C208.34 49.2905 210.854 61.7488 210.835 74.9993C210.815 88.2499 208.298 100.708 203.283 112.374C198.268 124.04 191.441 134.183 182.803 142.801C174.166 151.42 164.023 158.25 152.376 163.291C140.729 168.331 128.271 170.845 115.001 170.833ZM115.001 151.666C136.404 151.666 154.533 144.239 169.387 129.385C184.241 114.531 191.668 96.4021 191.668 74.9993C191.668 53.5966 184.241 35.4681 169.387 20.6139C154.533 5.75977 136.404 -1.66732 115.001 -1.66732C93.5985 -1.66732 75.4701 5.75977 60.6159 20.6139C45.7617 35.4681 38.3346 53.5966 38.3346 74.9993C38.3346 96.4021 45.7617 114.531 60.6159 129.385C75.4701 144.239 93.5985 151.666 115.001 151.666Z" fill="#FF0000" fill-opacity="0.2"/>
</svg>
