<svg width="50" height="51" viewBox="0 0 50 51" fill="none" xmlns="http://www.w3.org/2000/svg">
<path d="M24.9987 8.83301C15.7924 8.83301 8.33203 16.2955 8.33203 25.4997C8.33203 34.7038 15.7924 42.1663 24.9987 42.1663C34.205 42.1663 41.6654 34.7038 41.6654 25.4997C41.6654 16.2955 34.205 8.83301 24.9987 8.83301ZM32.7216 30.2768C33.1123 30.6674 33.3317 31.1972 33.3317 31.7497C33.3317 32.3021 33.1123 32.832 32.7216 33.2226C32.331 33.6132 31.8012 33.8327 31.2487 33.8327C30.6962 33.8327 30.1664 33.6132 29.7758 33.2226L24.9987 28.4455L20.2216 33.2226C20.0286 33.4167 19.7991 33.5708 19.5463 33.6759C19.2935 33.781 19.0225 33.8352 18.7487 33.8352C18.4749 33.8352 18.2039 33.781 17.9511 33.6759C17.6983 33.5708 17.4688 33.4167 17.2758 33.2226C16.8852 32.8319 16.6658 32.3021 16.6658 31.7497C16.6658 31.1973 16.8852 30.6674 17.2758 30.2768L22.0529 25.4997L17.2758 20.7226C16.8851 20.332 16.6657 19.8021 16.6657 19.2497C16.6657 18.6972 16.8851 18.1674 17.2758 17.7768C17.6664 17.3861 18.1962 17.1667 18.7487 17.1667C19.3011 17.1667 19.831 17.3861 20.2216 17.7768L24.9987 22.5538L29.7758 17.7768C30.1664 17.3861 30.6962 17.1667 31.2487 17.1667C31.8012 17.1667 32.331 17.3861 32.7216 17.7768C33.1123 18.1674 33.3317 18.6972 33.3317 19.2497C33.3317 19.8021 33.1123 20.332 32.7216 20.7226L27.9445 25.4997L32.7216 30.2768Z" fill="#FF0101"/>
</svg>
