<svg width="200" height="144" viewBox="0 0 200 144" fill="none" xmlns="http://www.w3.org/2000/svg">
<path d="M91.6667 2.66667C76.8331 2.66667 62.3326 7.06534 49.9989 15.3064C37.6652 23.5476 28.0523 35.2609 22.3757 48.9654C16.6991 62.6699 15.2139 77.7499 18.1078 92.2984C21.0017 106.847 28.1447 120.211 38.6337 130.7C49.1226 141.189 62.4863 148.332 77.0349 151.226C91.5835 154.119 106.663 152.634 120.368 146.958C134.072 141.281 145.786 131.668 154.027 119.334C162.268 107.001 166.667 92.5003 166.667 77.6667V69.3333H183.333V77.6667C183.333 128.292 142.292 169.333 91.6667 169.333C41.0417 169.333 0 128.292 0 77.6667C0 27.0417 41.0417 -14 91.6667 -14C104.15 -14 116.067 -11.5 126.933 -6.96667L134.625 -3.75833L128.208 11.625L120.517 8.41667C111.374 4.61432 101.569 2.66006 91.6667 2.66667ZM186.783 15.1667L91.6667 110.283L42.3833 61L54.1667 49.2167L91.6667 86.7167L175 3.38333L186.783 15.1667Z" fill="#11A900" fill-opacity="0.2"/>
</svg>
