<svg width="59" height="59" viewBox="0 0 59 59" fill="none" xmlns="http://www.w3.org/2000/svg">
<path d="M54.0846 45.7375C54.0846 46.2265 53.8904 46.6955 53.5446 47.0413C53.1988 47.387 52.7299 47.5813 52.2409 47.5813H39.7034C39.2927 49.1125 38.3884 50.4655 37.1305 51.4305C35.8727 52.3954 34.3316 52.9185 32.7463 52.9185C31.161 52.9185 29.6199 52.3954 28.3621 51.4305C27.1042 50.4655 26.1999 49.1125 25.7892 47.5813H6.76172C6.27273 47.5813 5.80376 47.387 5.45799 47.0413C5.11222 46.6955 4.91797 46.2265 4.91797 45.7375C4.91797 45.2485 5.11222 44.7796 5.45799 44.4338C5.80376 44.088 6.27273 43.8938 6.76172 43.8938H25.7892C26.1999 42.3626 27.1042 41.0096 28.3621 40.0446C29.6199 39.0796 31.161 38.5566 32.7463 38.5566C34.3316 38.5566 35.8727 39.0796 37.1305 40.0446C38.3884 41.0096 39.2927 42.3626 39.7034 43.8938H52.2409C52.7299 43.8938 53.1988 44.088 53.5446 44.4338C53.8904 44.7796 54.0846 45.2485 54.0846 45.7375ZM54.0846 13.263C54.0846 13.7519 53.8904 14.2209 53.5446 14.5667C53.1988 14.9125 52.7299 15.1067 52.2409 15.1067H46.218C45.8073 16.6379 44.903 17.9909 43.6451 18.9559C42.3873 19.9209 40.8462 20.4439 39.2609 20.4439C37.6755 20.4439 36.1345 19.9209 34.8766 18.9559C33.6188 17.9909 32.7144 16.6379 32.3038 15.1067H6.76172C6.51959 15.1067 6.27984 15.059 6.05615 14.9664C5.83245 14.8737 5.6292 14.7379 5.45799 14.5667C5.28678 14.3955 5.15097 14.1922 5.05832 13.9685C4.96566 13.7448 4.91797 13.5051 4.91797 13.263C4.91797 13.0208 4.96566 12.7811 5.05832 12.5574C5.15097 12.3337 5.28678 12.1304 5.45799 11.9592C5.6292 11.788 5.83245 11.6522 6.05615 11.5596C6.27984 11.4669 6.51959 11.4192 6.76172 11.4192H32.3038C32.7144 9.88797 33.6188 8.53498 34.8766 7.57002C36.1345 6.60506 37.6755 6.08203 39.2609 6.08203C40.8462 6.08203 42.3873 6.60506 43.6451 7.57002C44.903 8.53498 45.8073 9.88797 46.218 11.4192H52.2409C52.4839 11.4159 52.7252 11.4613 52.9504 11.5528C53.1755 11.6443 53.3801 11.78 53.552 11.9519C53.7239 12.1237 53.8595 12.3283 53.951 12.5535C54.0425 12.7787 54.0879 13.0199 54.0846 13.263ZM54.0846 29.488C54.0879 29.731 54.0425 29.9722 53.951 30.1974C53.8595 30.4226 53.7239 30.6272 53.552 30.7991C53.3801 30.9709 53.1755 31.1066 52.9504 31.1981C52.7252 31.2896 52.4839 31.335 52.2409 31.3317H23.4784C23.0677 32.8629 22.1634 34.2159 20.9055 35.1809C19.6477 36.1459 18.1066 36.6689 16.5213 36.6689C14.936 36.6689 13.3949 36.1459 12.1371 35.1809C10.8792 34.2159 9.97486 32.8629 9.56422 31.3317H6.76172C6.27273 31.3317 5.80376 31.1375 5.45799 30.7917C5.11222 30.4459 4.91797 29.9769 4.91797 29.488C4.91797 28.999 5.11222 28.53 5.45799 28.1842C5.80376 27.8385 6.27273 27.6442 6.76172 27.6442H9.56422C9.97486 26.113 10.8792 24.76 12.1371 23.795C13.3949 22.8301 14.936 22.307 16.5213 22.307C18.1066 22.307 19.6477 22.8301 20.9055 23.795C22.1634 24.76 23.0677 26.113 23.4784 27.6442H52.2409C52.7299 27.6442 53.1988 27.8385 53.5446 28.1842C53.8904 28.53 54.0846 28.999 54.0846 29.488Z" fill="#11A900"/>
</svg>
