<svg width="41" height="40" viewBox="0 0 41 40" fill="none" xmlns="http://www.w3.org/2000/svg">
<path d="M36.8422 16.7345H35.4997V16.6654H20.4997V23.332H29.9188C28.5447 27.2129 24.8522 29.9987 20.4997 29.9987C14.9772 29.9987 10.4997 25.5212 10.4997 19.9987C10.4997 14.4762 14.9772 9.9987 20.4997 9.9987C23.0488 9.9987 25.368 10.9604 27.1338 12.5312L31.848 7.81703C28.8713 5.04286 24.8897 3.33203 20.4997 3.33203C11.2955 3.33203 3.83301 10.7945 3.83301 19.9987C3.83301 29.2029 11.2955 36.6654 20.4997 36.6654C29.7038 36.6654 37.1663 29.2029 37.1663 19.9987C37.1663 18.8812 37.0513 17.7904 36.8422 16.7345Z" fill="#FFC107"/>
<path d="M5.75488 12.2412L11.2307 16.257C12.7124 12.5887 16.3007 9.9987 20.4999 9.9987C23.0491 9.9987 25.3682 10.9604 27.1341 12.5312L31.8482 7.81703C28.8716 5.04286 24.8899 3.33203 20.4999 3.33203C14.0982 3.33203 8.54655 6.9462 5.75488 12.2412Z" fill="#FF3D00"/>
<path d="M20.4996 36.6672C24.8046 36.6672 28.7163 35.0197 31.6738 32.3406L26.5154 27.9756C24.7862 29.2914 22.6726 30.0029 20.4996 30.0006C16.1646 30.0006 12.4838 27.2364 11.0971 23.3789L5.66211 27.5664C8.42044 32.9639 14.0221 36.6672 20.4996 36.6672Z" fill="#4CAF50"/>
<path d="M36.8425 16.7371H35.5V16.668H20.5V23.3346H29.9192C29.2618 25.1816 28.0778 26.7956 26.5133 27.9771L26.5158 27.9755L31.6742 32.3405C31.3092 32.6721 37.1667 28.3346 37.1667 20.0013C37.1667 18.8838 37.0517 17.793 36.8425 16.7371Z" fill="#1976D2"/>
</svg>
