<svg width="40" height="40" viewBox="0 0 40 40" fill="none" xmlns="http://www.w3.org/2000/svg">
<path d="M10.4167 5H29.5833C30.9669 4.99991 32.298 5.52926 33.3037 6.47945C34.3094 7.42965 34.9133 8.72866 34.9917 10.11L35 10.4167V29.5833C35.0001 30.9669 34.4707 32.298 33.5205 33.3037C32.5703 34.3094 31.2713 34.9133 29.89 34.9917L29.5833 35H10.4167C9.0331 35.0001 7.70195 34.4707 6.69628 33.5205C5.69061 32.5703 5.08666 31.2713 5.00833 29.89L5 29.5833V10.4167C4.99991 9.0331 5.52926 7.70195 6.47945 6.69628C7.42965 5.69061 8.72866 5.08666 10.11 5.00833L10.4167 5ZM13.875 24.1667H7.5V29.5833C7.50003 30.3153 7.77529 31.0205 8.27113 31.559C8.76698 32.0974 9.44717 32.4298 10.1767 32.49L10.4167 32.5H29.5833C30.3156 32.4999 31.021 32.2244 31.5595 31.7283C32.098 31.2321 32.4302 30.5515 32.49 29.8217L32.5 29.5833V24.1667H26.125C25.8484 25.5224 25.1296 26.7481 24.0815 27.6514C23.0334 28.5548 21.7151 29.0848 20.3333 29.1583L20 29.1667C18.6142 29.1671 17.2676 28.707 16.1718 27.8586C15.076 27.0102 14.2933 25.8217 13.9467 24.48L13.875 24.1667ZM29.5833 7.5H10.4167C9.68468 7.50003 8.97947 7.77529 8.44102 8.27113C7.90256 8.76698 7.57023 9.44717 7.51 10.1767L7.5 10.4167V21.6667H15C15.3021 21.6667 15.5939 21.7761 15.8216 21.9746C16.0492 22.1732 16.1973 22.4474 16.2383 22.7467L16.25 22.9167C16.2482 23.8902 16.6251 24.8263 17.3009 25.5269C17.9768 26.2276 18.8986 26.638 19.8716 26.6714C20.8445 26.7047 21.7923 26.3584 22.5145 25.7056C23.2368 25.0528 23.6768 24.1447 23.7417 23.1733L23.75 22.9167C23.75 22.6146 23.8594 22.3228 24.0579 22.0951C24.2565 21.8675 24.5307 21.7194 24.83 21.6783L25 21.6667H32.5V10.4167C32.4999 9.68442 32.2244 8.97898 31.7283 8.44049C31.2321 7.90199 30.5515 7.56984 29.8217 7.51L29.5833 7.5ZM11.25 15.8333H28.75C29.0667 15.8334 29.3716 15.9537 29.603 16.17C29.8344 16.3862 29.9751 16.6822 29.9967 16.9981C30.0183 17.3141 29.9191 17.6265 29.7193 17.8722C29.5194 18.1178 29.2337 18.2785 28.92 18.3217L28.75 18.3333H11.25C10.9333 18.3332 10.6284 18.2129 10.397 17.9967C10.1656 17.7805 10.0249 17.4845 10.0033 17.1685C9.9817 16.8526 10.0809 16.5402 10.2807 16.2945C10.4806 16.0488 10.7662 15.8882 11.08 15.845L11.25 15.8333ZM11.25 10.8333H28.75C29.0667 10.8334 29.3716 10.9537 29.603 11.17C29.8344 11.3862 29.9751 11.6822 29.9967 11.9981C30.0183 12.3141 29.9191 12.6265 29.7193 12.8722C29.5194 13.1178 29.2337 13.2785 28.92 13.3217L28.75 13.3333H11.25C10.9333 13.3332 10.6284 13.2129 10.397 12.9967C10.1656 12.7805 10.0249 12.4845 10.0033 12.1685C9.9817 11.8526 10.0809 11.5402 10.2807 11.2945C10.4806 11.0488 10.7662 10.8882 11.08 10.845L11.25 10.8333Z" fill="#11A900"/>
</svg>
