<svg width="73" height="70" viewBox="0 0 73 70" fill="none" xmlns="http://www.w3.org/2000/svg">
<path d="M41.2427 2.94132L41.0539 12.4047L32.846 7.31014L41.2427 2.94132Z" fill="#11A900"/>
<path d="M59.2234 40.249C59.2234 42.2196 57.6259 43.8171 55.6552 43.8171C53.6846 43.8171 52.0871 42.2196 52.0871 40.249C52.0871 38.2784 53.6846 36.6809 55.6552 36.6809C57.6259 36.6809 59.2234 38.2784 59.2234 40.249Z" fill="#11A900" stroke="#11A900" stroke-width="0.400794"/>
<path d="M66.7624 55.3232C66.7624 57.2938 65.1649 58.8913 63.1943 58.8913C61.2237 58.8913 59.6262 57.2938 59.6262 55.3232C59.6262 53.3526 61.2237 51.7551 63.1943 51.7551C65.1649 51.7551 66.7624 53.3526 66.7624 55.3232Z" fill="#11A900" stroke="#11A900" stroke-width="0.400794"/>
<path d="M71.1589 68.1369V69.7401C71.7357 69.7401 72.268 69.4303 72.5529 68.9288C72.8378 68.4273 72.8313 67.8114 72.5359 67.316L71.1589 68.1369ZM12.4134 68.1369L11.0266 67.3327C10.739 67.8286 10.7381 68.4404 11.0243 68.9372C11.3105 69.434 11.8401 69.7401 12.4134 69.7401V68.1369ZM41.7862 17.488L43.173 16.6837C42.8862 16.1892 42.3578 15.8848 41.7862 15.8848C41.2145 15.8848 40.6861 16.1892 40.3993 16.6837L41.7862 17.488ZM53.1625 40.3004C53.6067 41.0663 54.5877 41.3272 55.3536 40.883C56.1195 40.4388 56.3804 39.4578 55.9362 38.6919L53.1625 40.3004ZM0.467633 67.308C0.00980032 68.0658 0.253014 69.0513 1.01087 69.5091C1.76872 69.967 2.75422 69.7238 3.21205 68.9659L0.467633 67.308ZM39.8204 8.36804C40.2782 7.61019 40.035 6.62468 39.2771 6.16685C38.5193 5.70902 37.5338 5.95223 37.0759 6.71008L39.8204 8.36804ZM42.5464 31.9591L43.9548 31.1932C43.6784 30.685 43.1497 30.3651 42.5713 30.3561C41.9929 30.3471 41.4545 30.6504 41.1625 31.1498L42.5464 31.9591ZM58.5314 61.3536V62.9568C59.0968 62.9568 59.6205 62.6589 59.9094 62.1728C60.1984 61.6868 60.2099 61.0844 59.9398 60.5877L58.5314 61.3536ZM25.3554 61.3536L23.9715 60.5442C23.6816 61.04 23.679 61.6531 23.9648 62.1513C24.2506 62.6495 24.7811 62.9568 25.3554 62.9568V61.3536ZM71.1589 66.5338H12.4134V69.7401H71.1589V66.5338ZM13.8003 68.9412L43.173 18.2922L40.3993 16.6837L11.0266 67.3327L13.8003 68.9412ZM63.6115 58.6082L69.7819 68.9579L72.5359 67.316L66.3655 56.9663L63.6115 58.6082ZM40.3993 18.2922L53.1625 40.3004L55.9362 38.6919L43.173 16.6837L40.3993 18.2922ZM3.21205 68.9659L39.8204 8.36804L37.0759 6.71008L0.467633 67.308L3.21205 68.9659ZM41.138 32.725L57.123 62.1195L59.9398 60.5877L43.9548 31.1932L41.138 32.725ZM58.5314 59.7504H25.3554V62.9568H58.5314V59.7504ZM26.7393 62.1629L43.9302 32.7684L41.1625 31.1498L23.9715 60.5442L26.7393 62.1629Z" fill="#11A900"/>
</svg>
