<svg width="40" height="40" viewBox="0 0 40 40" fill="none" xmlns="http://www.w3.org/2000/svg">
<path d="M33.9071 28.5938H31.161C30.9735 28.5938 30.7977 28.6758 30.6806 28.8204C30.4071 29.1524 30.1142 29.4727 29.8056 29.7774C28.5434 31.0408 27.0484 32.0477 25.4032 32.7422C23.6987 33.4622 21.8668 33.8315 20.0165 33.8282C18.1454 33.8282 16.3329 33.461 14.6298 32.7422C12.9846 32.0477 11.4895 31.0408 10.2274 29.7774C8.96305 28.5183 7.95486 27.0259 7.25868 25.3829C6.53603 23.6797 6.17274 21.8712 6.17274 20.0001C6.17274 18.129 6.53993 16.3204 7.25868 14.6172C7.95399 12.9727 8.95399 11.4922 10.2274 10.2227C11.5009 8.95318 12.9813 7.95318 14.6298 7.25787C16.3329 6.53912 18.1454 6.17193 20.0165 6.17193C21.8876 6.17193 23.7001 6.53522 25.4032 7.25787C27.0517 7.95318 28.5321 8.95318 29.8056 10.2227C30.1142 10.5313 30.4032 10.8516 30.6806 11.1797C30.7977 11.3243 30.9774 11.4063 31.161 11.4063H33.9071C34.1532 11.4063 34.3056 11.1329 34.1688 10.9258C31.1727 6.26959 25.9306 3.18756 19.9735 3.20318C10.6142 3.22662 3.11024 10.8243 3.20399 20.1719C3.29774 29.3712 10.7899 36.7969 20.0165 36.7969C25.9579 36.7969 31.1767 33.7188 34.1688 29.0743C34.3017 28.8672 34.1532 28.5938 33.9071 28.5938ZM37.3798 19.754L31.8368 15.379C31.6298 15.2149 31.329 15.3633 31.329 15.6251V18.5938H19.0634C18.8915 18.5938 18.7509 18.7344 18.7509 18.9063V21.0938C18.7509 21.2657 18.8915 21.4063 19.0634 21.4063H31.329V24.3751C31.329 24.6368 31.6337 24.7852 31.8368 24.6212L37.3798 20.2462C37.4171 20.2169 37.4473 20.1796 37.4681 20.1369C37.4889 20.0943 37.4997 20.0475 37.4997 20.0001C37.4997 19.9526 37.4889 19.9058 37.4681 19.8632C37.4473 19.8205 37.4171 19.7832 37.3798 19.754Z" fill="#C30000"/>
</svg>
