<svg width="32" height="32" viewBox="0 0 32 32" fill="none" xmlns="http://www.w3.org/2000/svg">
<g clip-path="url(#clip0_4_519)">
<path d="M11.9955 29.673C10.5904 30.5789 8.91631 30.9734 7.25461 30.7903C5.59291 30.6071 4.04493 29.8574 2.87089 28.6673L1.84461 27.6662C1.39572 27.2052 1.14453 26.5873 1.14453 25.9439C1.14453 25.3005 1.39572 24.6825 1.84461 24.2216L6.20118 19.9085C6.65825 19.461 7.27242 19.2104 7.91204 19.2104C8.55165 19.2104 9.16582 19.461 9.62289 19.9085C10.0838 20.3573 10.7018 20.6085 11.3452 20.6085C11.9886 20.6085 12.6065 20.3573 13.0675 19.9085L19.9086 13.0673C20.1363 12.842 20.3171 12.5738 20.4405 12.2781C20.5638 11.9825 20.6274 11.6654 20.6274 11.345C20.6274 11.0247 20.5638 10.7075 20.4405 10.4119C20.3171 10.1163 20.1363 9.84805 19.9086 9.62274C19.4612 9.16567 19.2106 8.5515 19.2106 7.91188C19.2106 7.27226 19.4612 6.6581 19.9086 6.20103L24.2446 1.86731C24.7055 1.41843 25.3235 1.16724 25.9669 1.16724C26.6103 1.16724 27.2283 1.41843 27.6892 1.86731L28.6926 2.89588C29.8813 4.06991 30.6298 5.61716 30.8125 7.27784C30.9952 8.93852 30.601 10.6115 29.696 12.0159C24.9736 18.9747 18.9658 24.9677 11.9955 29.673Z" stroke="black" stroke-width="3" stroke-linecap="round" stroke-linejoin="round"/>
</g>
<defs>
<clipPath id="clip0_4_519">
<rect width="32" height="32" fill="white"/>
</clipPath>
</defs>
</svg>
