<svg width="30" height="30" viewBox="0 0 30 30" fill="none" xmlns="http://www.w3.org/2000/svg">
<path fill-rule="evenodd" clip-rule="evenodd" d="M20.4072 18.6234L27.1322 25.3484C27.3686 25.585 27.5013 25.9057 27.5012 26.2401C27.501 26.5745 27.3681 26.8952 27.1316 27.1316C26.895 27.3679 26.5743 27.5007 26.2399 27.5005C25.9055 27.5004 25.5848 27.3675 25.3484 27.1309L18.6234 20.4059C16.6131 21.963 14.085 22.6958 11.5536 22.4551C9.02215 22.2145 6.67747 21.0185 4.99653 19.1104C3.3156 17.2024 2.42467 14.7257 2.505 12.1841C2.58532 9.64253 3.63087 7.22701 5.42894 5.42894C7.22701 3.63087 9.64253 2.58532 12.1841 2.505C14.7257 2.42467 17.2024 3.3156 19.1104 4.99653C21.0185 6.67747 22.2145 9.02215 22.4551 11.5536C22.6958 14.085 21.963 16.6131 20.4059 18.6234M12.5009 19.9997C14.4901 19.9997 16.3977 19.2095 17.8042 17.803C19.2108 16.3965 20.0009 14.4888 20.0009 12.4997C20.0009 10.5106 19.2108 8.6029 17.8042 7.19638C16.3977 5.78986 14.4901 4.99968 12.5009 4.99968C10.5118 4.99968 8.60415 5.78986 7.19763 7.19638C5.79111 8.6029 5.00093 10.5106 5.00093 12.4997C5.00093 14.4888 5.79111 16.3965 7.19763 17.803C8.60415 19.2095 10.5118 19.9997 12.5009 19.9997Z" fill="#909090"/>
</svg>
