<svg width="40" height="41" viewBox="0 0 40 41" fill="none" xmlns="http://www.w3.org/2000/svg">
<path fill-rule="evenodd" clip-rule="evenodd" d="M30.9837 9.51665L6.99702 18.105L14.9887 23.1517L22.1537 15.985C22.4664 15.6725 22.8905 15.497 23.3326 15.4972C23.7747 15.4973 24.1987 15.6731 24.5112 15.9858C24.8237 16.2986 24.9992 16.7226 24.999 17.1647C24.9989 17.6069 24.8231 18.0308 24.5104 18.3433L17.3437 25.51L22.3937 33.5L30.9837 9.51665ZM30.522 6.77665C32.5137 6.05499 34.4437 7.98499 33.722 9.97665L24.9187 34.3183C24.1954 36.315 21.4687 36.5583 20.4037 34.72L15.042 25.4567L5.77869 20.095C3.94035 19.03 4.18369 16.3033 6.18035 15.58L30.522 6.77665Z" fill="white"/>
</svg>
