<svg width="60" height="71" viewBox="0 0 60 71" fill="none" xmlns="http://www.w3.org/2000/svg">
<path d="M1.70508 36.4074V34.8668C0.854214 34.8668 0.164453 35.5566 0.164453 36.4074H1.70508ZM17.1814 36.4074H18.722C18.722 35.5566 18.0322 34.8668 17.1814 34.8668V36.4074ZM17.1814 68.8906V70.4313C18.0322 70.4313 18.722 69.7415 18.722 68.8906H17.1814ZM1.70508 68.8906H0.164453C0.164453 69.7415 0.854214 70.4313 1.70508 70.4313L1.70508 68.8906ZM25.3447 37.768L24.3668 36.5775C24.3348 36.6038 24.3039 36.6313 24.2742 36.6601L25.3447 37.768ZM21.4331 41.5095V43.0501C21.7415 43.0501 22.0427 42.9576 22.2979 42.7845L21.4331 41.5095ZM22.7735 66.7452L23.844 65.6372L23.844 65.6372L22.7735 66.7452ZM50.8136 65.343L49.4052 64.7186C49.4031 64.7233 49.401 64.7281 49.3989 64.7329L50.8136 65.343ZM57.724 49.7562L59.1324 50.3806C59.1391 50.3653 59.1457 50.3499 59.1519 50.3345L57.724 49.7562ZM17.1814 41.5095V39.9689H15.6407V41.5095H17.1814ZM46.6033 39.4708V41.0114C47.0456 41.0114 47.4666 40.8213 47.759 40.4895C48.0515 40.1577 48.1873 39.7162 48.1317 39.2774L46.6033 39.4708ZM46.4332 26.5455L45.4672 25.3454C45.099 25.6417 44.8872 26.0908 44.8927 26.5634L46.4332 26.5455ZM53.0659 13.108H51.5253C51.5253 13.2117 51.5358 13.3152 51.5565 13.4168L53.0659 13.108ZM44.8495 1.87643C43.9992 1.90575 43.3336 2.61887 43.3629 3.46923C43.3922 4.31959 44.1053 4.98517 44.9557 4.95585L44.8495 1.87643ZM34.533 39.4708L32.9925 39.4496C32.9869 39.8618 33.1467 40.2591 33.4362 40.5526C33.7257 40.8462 34.1207 41.0114 34.533 41.0114V39.4708ZM34.7031 26.5455L36.2436 26.5634C36.2491 26.0908 36.0373 25.6417 35.6691 25.3454L34.7031 26.5455ZM28.0704 13.108L29.5798 13.4168C29.6006 13.3152 29.611 13.2117 29.611 13.108L28.0704 13.108ZM36.1806 4.95585C37.031 4.98517 37.7441 4.31959 37.7734 3.46923C37.8027 2.61887 37.1372 1.90575 36.2868 1.87643L36.1806 4.95585ZM34.6616 30.1149L36.2021 30.1361L36.2021 30.1328L34.6616 30.1149ZM46.5815 39.2986L45.041 39.3165C45.0417 39.3752 45.0457 39.4338 45.0531 39.492L46.5815 39.2986ZM42.1088 28.2441C42.1088 27.3933 41.419 26.7035 40.5682 26.7035C39.7173 26.7035 39.0275 27.3933 39.0275 28.2441H42.1088ZM1.70508 37.9481H17.1814V34.8668H1.70508V37.9481ZM17.1814 67.35H1.70508V70.4313H17.1814V67.35ZM3.2457 68.8906V36.4074H0.164453V68.8906H3.2457ZM59.5849 43.7204C59.5849 42.1217 58.9271 40.5996 57.7744 39.4858L55.6334 41.7017C56.1972 42.2464 56.5037 42.9737 56.5037 43.7204H59.5849ZM57.7744 39.4858C56.6235 38.3738 55.0735 37.758 53.4679 37.758V40.8392C54.2898 40.8392 55.0678 41.1552 55.6334 41.7017L57.7744 39.4858ZM24.2742 36.6601C23.8439 37.0758 23.1002 37.8873 22.4766 38.5245C21.7755 39.2409 21.1032 39.8717 20.5682 40.2345L22.2979 42.7845C23.113 42.2316 23.9731 41.4006 24.6787 40.6797C25.4618 39.8796 25.9988 39.2782 26.4152 38.8759L24.2742 36.6601ZM15.6407 63.1083C15.6407 63.7715 15.9663 64.2675 16.1992 64.549C16.4476 64.8495 16.752 65.1005 17.0307 65.3024C17.5917 65.7087 18.3019 66.0942 18.955 66.4277C19.2898 66.5986 19.6293 66.7656 19.9475 66.9219C20.27 67.0804 20.5675 67.2265 20.8371 67.3641C21.1085 67.5027 21.3286 67.6212 21.4969 67.7216C21.6859 67.8345 21.728 67.8773 21.703 67.8531L23.844 65.6372C23.6044 65.4057 23.3109 65.216 23.0767 65.0762C22.8218 64.924 22.5313 64.7695 22.2382 64.6198C21.9433 64.4693 21.6225 64.3119 21.3064 64.1565C20.986 63.9991 20.6668 63.842 20.3561 63.6834C19.7185 63.3579 19.1916 63.063 18.8381 62.8069C18.6597 62.6777 18.5875 62.6021 18.5737 62.5854C18.5443 62.5499 18.722 62.7383 18.722 63.1083H15.6407ZM21.703 67.8531C22.8539 68.9651 24.4039 69.5809 26.0095 69.5809V66.4997C25.1876 66.4997 24.4096 66.1837 23.844 65.6372L21.703 67.8531ZM26.0095 69.5809H46.6033V66.4997H26.0095V69.5809ZM46.6033 69.5809C49.1071 69.5809 51.2942 68.1192 52.2283 65.9531L49.3989 64.7329C48.9601 65.7505 47.8979 66.4997 46.6033 66.4997V69.5809ZM52.222 65.9674L59.1324 50.3806L56.3155 49.1317L49.4052 64.7186L52.222 65.9674ZM59.1519 50.3345C59.4262 49.6573 59.5849 48.9309 59.5849 48.1422H56.5037C56.5037 48.5032 56.4336 48.838 56.296 49.1779L59.1519 50.3345ZM59.5849 48.1422V43.7204H56.5037V48.1422H59.5849ZM15.6407 36.4074V68.8906H18.722V36.4074H15.6407ZM21.4331 39.9689H17.1814V43.0501H21.4331V39.9689ZM15.6407 41.5095V63.1083H18.722V41.5095H15.6407ZM47.3992 27.7457C48.6512 26.738 50.7436 24.7556 52.3782 22.2004C54.0038 19.6591 55.3014 16.3491 54.5753 12.7993L51.5565 13.4168C52.0549 15.8534 51.1983 18.3268 49.7826 20.54C48.3757 22.7391 46.5395 24.4823 45.4672 25.3454L47.3992 27.7457ZM54.6065 13.108C54.6065 12.0087 54.2602 10.7725 53.7622 9.60569C53.2538 8.41469 52.5385 7.18191 51.6903 6.06621C50.8454 4.95476 49.8334 3.91309 48.7121 3.14658C47.5993 2.38579 46.2748 1.82728 44.8495 1.87643L44.9557 4.95585C45.5032 4.93697 46.1855 5.15176 46.9732 5.69024C47.7525 6.223 48.5347 7.00657 49.2374 7.93093C49.9369 8.85105 50.5225 9.86467 50.9283 10.8153C51.3444 11.7901 51.5253 12.5908 51.5253 13.108H54.6065ZM35.6691 25.3454C34.5968 24.4823 32.7606 22.7391 31.3538 20.54C29.938 18.3268 29.0814 15.8534 29.5798 13.4168L26.561 12.7993C25.8349 16.3491 27.1325 19.6591 28.7581 22.2004C30.3927 24.7556 32.4851 26.738 33.7371 27.7457L35.6691 25.3454ZM29.611 13.108C29.611 12.5908 29.7919 11.7901 30.208 10.8153C30.6138 9.86467 31.1994 8.85105 31.8989 7.93093C32.6016 7.00657 33.3838 6.223 34.1631 5.69024C34.9508 5.15176 35.6331 4.93697 36.1806 4.95585L36.2868 1.87643C34.8615 1.82728 33.537 2.38579 32.4242 3.14658C31.3029 3.91309 30.2909 4.95476 29.446 6.06621C28.5978 7.18191 27.8825 8.41469 27.3741 9.60569C26.8761 10.7725 26.5298 12.0087 26.5298 13.108H29.611ZM36.0735 39.4919L36.2021 30.1361L33.1211 30.0937L32.9925 39.4496L36.0735 39.4919ZM36.2021 30.1328L36.2436 26.5634L33.1626 26.5276L33.1211 30.097L36.2021 30.1328ZM26.3226 38.9585L35.6395 31.3054L33.6837 28.9244L24.3668 36.5775L26.3226 38.9585ZM48.1317 39.2774L48.11 39.1053L45.0531 39.492L45.0749 39.6641L48.1317 39.2774ZM48.122 39.2807L47.9737 26.5276L44.8927 26.5634L45.041 39.3165L48.122 39.2807ZM53.4679 37.758H46.5815V40.8392H53.4679V37.758ZM34.533 41.0114H40.5682V37.9301H34.533V41.0114ZM40.5682 41.0114H46.6033V37.9301H40.5682V41.0114ZM42.1088 39.4708V28.2441H39.0275V39.4708H42.1088Z" fill="#11A900"/>
<circle cx="9.4082" cy="61.9609" r="3.65898" fill="#11A900" stroke="#11A900" stroke-width="0.385156"/>
<circle cx="35.792" cy="3.22461" r="2.69609" fill="#11A900" stroke="#11A900" stroke-width="0.385156"/>
<circle cx="44.6494" cy="3.22461" r="2.69609" fill="#11A900" stroke="#11A900" stroke-width="0.385156"/>
</svg>
