<svg width="62" height="64" viewBox="0 0 62 64" fill="none" xmlns="http://www.w3.org/2000/svg">
<path d="M8.8408 51.2333C8.8408 52.1404 9.57612 52.8757 10.4832 52.8757C11.3903 52.8757 12.1256 52.1404 12.1256 51.2333H8.8408ZM12.1256 30.7204C12.1256 29.8134 11.3903 29.0781 10.4832 29.0781C9.57612 29.0781 8.8408 29.8134 8.8408 30.7204H12.1256ZM51.5124 51.235L53.1548 51.235V51.235H51.5124ZM53.1548 30.6836C53.1548 29.7766 52.4195 29.0412 51.5124 29.0412C50.6053 29.0412 49.87 29.7766 49.87 30.6836H53.1548ZM6.38026 2V0.357616C5.5917 0.357616 4.91443 0.918056 4.76688 1.69269L6.38026 2ZM55.6153 2L57.2287 1.69269C57.0811 0.918054 56.4039 0.357616 55.6153 0.357616V2ZM45.358 23.5403L47.0004 23.5403C47.0004 23.4883 46.9979 23.4364 46.993 23.3846L45.358 23.5403ZM41.768 29.7585L40.9468 28.3361L40.9468 28.3361L41.768 29.7585ZM38.1779 30.7204L38.1779 29.0781L38.1779 30.7204ZM34.5878 29.7585L35.409 28.3361L35.409 28.3361L34.5878 29.7585ZM30.9978 23.5403L32.6402 23.5403L32.6402 23.5403L30.9978 23.5403ZM59.7182 23.5403L61.3606 23.5403C61.3606 23.4372 61.3509 23.3343 61.3316 23.233L59.7182 23.5403ZM56.1282 29.7585L56.9494 31.1808L56.9494 31.1808L56.1282 29.7585ZM52.5381 30.7204L52.5381 29.0781L52.5381 30.7204ZM48.9481 29.7585L48.1269 31.1808L48.1269 31.1808L48.9481 29.7585ZM16.6376 23.5405L15.0026 23.3847C14.9976 23.4365 14.9952 23.4885 14.9952 23.5405L16.6376 23.5405ZM13.0475 29.7586L12.2263 28.3363L12.2263 28.3363L13.0475 29.7586ZM2.27734 23.5405L0.663966 23.2331C0.644671 23.3344 0.63496 23.4373 0.63496 23.5405L2.27734 23.5405ZM27.4077 29.7586L26.5865 28.3363L26.5865 28.3363L27.4077 29.7586ZM20.2276 29.7586L19.4064 31.181L19.4064 31.181L20.2276 29.7586ZM18.689 59.4409L18.689 57.7985L18.689 59.4409ZM43.3065 59.4409L43.3065 57.7985H43.3065V59.4409ZM12.1256 51.235C12.1256 50.328 11.3903 49.5927 10.4832 49.5927C9.57612 49.5927 8.8408 50.328 8.8408 51.235L12.1256 51.235ZM23.8177 59.4409V61.0833C24.7247 61.0833 25.4601 60.348 25.4601 59.4409H23.8177ZM23.8177 48.1123L25.4601 48.1123L25.4601 48.1123L23.8177 48.1123ZM31.3169 41.2513V42.8937C31.3504 42.8937 31.3839 42.8926 31.4173 42.8906L31.3169 41.2513ZM39.1352 48.1123H40.7776C40.7776 48.0885 40.7771 48.0647 40.7761 48.0409L39.1352 48.1123ZM39.1352 59.4409H37.4929C37.4929 60.348 38.2282 61.0833 39.1352 61.0833V59.4409ZM12.1256 51.2333V30.7204H8.8408V51.2333H12.1256ZM53.1548 51.235V30.6836H49.87V51.235H53.1548ZM6.38026 3.64238H55.6153V0.357616H6.38026V3.64238ZM43.7156 23.5403C43.7156 24.5124 43.4597 25.4674 42.9737 26.3092L45.8184 27.9516C46.5927 26.6104 47.0004 25.089 47.0004 23.5403L43.7156 23.5403ZM42.9737 26.3092C42.4877 27.151 41.7886 27.8501 40.9468 28.3361L42.5891 31.1808C43.9303 30.4065 45.0441 29.2928 45.8184 27.9516L42.9737 26.3092ZM40.9468 28.3361C40.1049 28.8222 39.15 29.0781 38.1779 29.0781L38.1779 32.3628C39.7266 32.3628 41.248 31.9552 42.5891 31.1808L40.9468 28.3361ZM38.1779 29.0781C37.2058 29.0781 36.2509 28.8222 35.409 28.3361L33.7667 31.1808C35.1078 31.9552 36.6292 32.3628 38.1779 32.3628L38.1779 29.0781ZM35.409 28.3361C34.5672 27.8501 33.8681 27.151 33.3821 26.3092L30.5374 27.9516C31.3117 29.2928 32.4255 30.4065 33.7667 31.1808L35.409 28.3361ZM33.3821 26.3092C32.896 25.4674 32.6402 24.5124 32.6402 23.5403L29.3554 23.5403C29.3554 25.089 29.7631 26.6104 30.5374 27.9516L33.3821 26.3092ZM58.0758 23.5403C58.0758 24.5124 57.82 25.4674 57.3339 26.3092L60.1786 27.9516C60.953 26.6104 61.3606 25.089 61.3606 23.5403L58.0758 23.5403ZM57.3339 26.3092C56.8479 27.151 56.1488 27.8501 55.307 28.3361L56.9494 31.1808C58.2906 30.4065 59.4043 29.2928 60.1786 27.9516L57.3339 26.3092ZM55.307 28.3361C54.4651 28.8222 53.5102 29.0781 52.5381 29.0781L52.5381 32.3628C54.0868 32.3628 55.6082 31.9552 56.9494 31.1808L55.307 28.3361ZM52.5381 29.0781C51.566 29.0781 50.6111 28.8222 49.7693 28.3361L48.1269 31.1808C49.4681 31.9552 50.9895 32.3628 52.5381 32.3628L52.5381 29.0781ZM49.7693 28.3361C48.9274 27.8501 48.2283 27.151 47.7423 26.3092L44.8976 27.9516C45.672 29.2928 46.7857 30.4065 48.1269 31.1808L49.7693 28.3361ZM47.7423 26.3092C47.2563 25.4673 47.0004 24.5124 47.0004 23.5403L43.7156 23.5403C43.7156 25.089 44.1233 26.6104 44.8976 27.9516L47.7423 26.3092ZM14.9952 23.5405C14.9952 24.5125 14.7393 25.4675 14.2533 26.3093L17.098 27.9517C17.8723 26.6105 18.2799 25.0891 18.2799 23.5405L14.9952 23.5405ZM14.2533 26.3093C13.7672 27.1512 13.0682 27.8502 12.2263 28.3363L13.8687 31.181C15.2099 30.4066 16.3236 29.2929 17.098 27.9517L14.2533 26.3093ZM12.2263 28.3363C11.3845 28.8223 10.4295 29.0782 9.45745 29.0782V32.363C11.0061 32.363 12.5275 31.9553 13.8687 31.181L12.2263 28.3363ZM9.45745 29.0782C8.48538 29.0782 7.53043 28.8223 6.68859 28.3363L5.04621 31.181C6.3874 31.9553 7.90879 32.363 9.45745 32.363V29.0782ZM6.68859 28.3363C5.84675 27.8502 5.14768 27.1512 4.66164 26.3093L1.81695 27.9517C2.59128 29.2929 3.70502 30.4066 5.04621 31.181L6.68859 28.3363ZM4.66164 26.3093C4.17561 25.4675 3.91973 24.5125 3.91973 23.5405L0.63496 23.5405C0.63496 25.0891 1.04261 26.6105 1.81695 27.9517L4.66164 26.3093ZM29.3554 23.5403C29.3554 24.5124 29.0995 25.4675 28.6135 26.3093L31.4582 27.9517C32.2325 26.6105 32.6402 25.089 32.6402 23.5403L29.3554 23.5403ZM28.6135 26.3093C28.1274 27.1512 27.4284 27.8502 26.5865 28.3363L28.2289 31.181C29.5701 30.4066 30.6838 29.2929 31.4582 27.9517L28.6135 26.3093ZM26.5865 28.3363C25.7447 28.8223 24.7898 29.0782 23.8177 29.0782V32.363C25.3663 32.363 26.8877 31.9553 28.2289 31.181L26.5865 28.3363ZM23.8177 29.0782C22.8456 29.0782 21.8907 28.8223 21.0488 28.3363L19.4064 31.181C20.7476 31.9553 22.269 32.363 23.8177 32.363V29.0782ZM21.0488 28.3363C20.207 27.8502 19.5079 27.1512 19.0219 26.3093L16.1772 27.9517C16.9515 29.2929 18.0652 30.4066 19.4064 31.181L21.0488 28.3363ZM19.0219 26.3093C18.5358 25.4675 18.2799 24.5125 18.2799 23.5405L14.9952 23.5405C14.9952 25.0891 15.4028 26.6105 16.1772 27.9517L19.0219 26.3093ZM3.89072 23.8478L7.99364 2.30731L4.76688 1.69269L0.663966 23.2331L3.89072 23.8478ZM54.0019 2.30731L58.1049 23.8476L61.3316 23.233L57.2287 1.69269L54.0019 2.30731ZM46.993 23.3846L44.9415 1.84429L41.6716 2.15571L43.723 23.696L46.993 23.3846ZM18.2725 23.6962L20.324 2.15571L17.054 1.84429L15.0026 23.3847L18.2725 23.6962ZM32.6402 23.5403L32.6402 2L29.3554 2L29.3554 23.5403L32.6402 23.5403ZM49.87 51.235C49.87 52.9758 49.1785 54.6452 47.9476 55.8761L50.2703 58.1988C52.1172 56.3519 53.1548 53.847 53.1548 51.235L49.87 51.235ZM47.9476 55.8761C46.7167 57.107 45.0473 57.7985 43.3065 57.7985L43.3065 61.0833C45.9185 61.0833 48.4234 60.0457 50.2703 58.1988L47.9476 55.8761ZM8.8408 51.235C8.8408 53.847 9.87838 56.3519 11.7253 58.1988L14.048 55.8761C12.8171 54.6452 12.1256 52.9758 12.1256 51.235L8.8408 51.235ZM11.7253 58.1988C13.5722 60.0457 16.0771 61.0833 18.689 61.0833L18.689 57.7985C16.9483 57.7985 15.2789 57.107 14.048 55.8761L11.7253 58.1988ZM18.689 61.0833H23.8177V57.7985H18.689V61.0833ZM25.4601 59.4409V48.1123H22.1753V59.4409H25.4601ZM25.4601 48.1123C25.4601 47.313 25.7891 45.9705 26.6899 44.8574C27.5357 43.8123 28.9418 42.8937 31.3169 42.8937V39.6089C27.9479 39.6089 25.6044 40.9772 24.1366 42.7909C22.7239 44.5365 22.1753 46.6245 22.1753 48.1123L25.4601 48.1123ZM31.4173 42.8906C32.4772 42.8257 34.0028 43.0389 35.2352 43.8115C36.3736 44.5253 37.3902 45.7864 37.4944 48.1836L40.7761 48.0409C40.625 44.5664 39.0355 42.3172 36.9801 41.0285C35.0186 39.7988 32.7627 39.5173 31.2165 39.612L31.4173 42.8906ZM37.4929 48.1123V59.4409H40.7776V48.1123H37.4929ZM39.1352 61.0833H43.3065V57.7985H39.1352V61.0833Z" fill="#11A900"/>
<path d="M26.0031 59.6022C26.0031 61.6919 24.3091 63.3859 22.2194 63.3859C20.1298 63.3859 18.4358 61.6919 18.4358 59.6022C18.4358 57.5126 20.1298 55.8186 22.2194 55.8186C24.3091 55.8186 26.0031 57.5126 26.0031 59.6022Z" fill="#11A900" stroke="#11A900" stroke-width="0.410596"/>
<path d="M43.8781 59.6022C43.8781 61.6919 42.1841 63.3859 40.0944 63.3859C38.0048 63.3859 36.3108 61.6919 36.3108 59.6022C36.3108 57.5126 38.0048 55.8186 40.0944 55.8186C42.1841 55.8186 43.8781 57.5126 43.8781 59.6022Z" fill="#11A900" stroke="#11A900" stroke-width="0.410596"/>
</svg>
