<svg width="54" height="54" viewBox="0 0 54 54" fill="none" xmlns="http://www.w3.org/2000/svg">
<path d="M24.4527 14.3044C24.1884 13.5533 23.6975 12.9027 23.0477 12.4425C22.3979 11.9822 21.6213 11.7349 20.8251 11.7347H17.8437C16.9979 11.737 16.1827 12.0513 15.5543 12.6174C14.9258 13.1834 14.5282 13.9614 14.4377 14.8023C14.3472 15.6432 14.5701 16.488 15.0637 17.1748C15.5572 17.8616 16.2868 18.3422 17.1127 18.5245L21.6445 19.5171C22.5717 19.7194 23.3915 20.2575 23.946 21.0277C24.5006 21.7979 24.7509 22.7459 24.6488 23.6895C24.5466 24.6331 24.0993 25.5057 23.3927 26.1394C22.6862 26.7731 21.7703 27.1232 20.8212 27.1225H18.2553C17.4599 27.1228 16.684 26.8767 16.0344 26.4178C15.3847 25.959 14.8933 25.3101 14.6276 24.5604M19.544 11.7347V7.8877M19.544 30.9695V27.1225M26.8802 52.0008V31.8042C26.8802 30.5289 27.3868 29.3058 28.2886 28.404C29.1904 27.5022 30.4135 26.9955 31.6889 26.9955C32.9642 26.9955 34.1873 27.5022 35.0891 28.404C35.991 29.3058 36.4976 30.5289 36.4976 31.8042V42.3834H44.1915C46.2321 42.3834 48.189 43.194 49.6319 44.6369C51.0748 46.0798 51.8854 48.0368 51.8854 50.0773V52.0008" stroke="#11A900" stroke-width="4" stroke-linecap="round" stroke-linejoin="round"/>
<path d="M19.5454 36.8612C15.9961 36.8607 12.5315 35.7767 9.61491 33.7541C6.69829 31.7315 4.46862 28.8668 3.22401 25.5429C1.9794 22.219 1.77917 18.5943 2.65009 15.1535C3.52101 11.7127 5.42157 8.61982 8.09766 6.28829C10.7738 3.95677 14.0978 2.49776 17.6255 2.10634C21.1531 1.71491 24.7162 2.40973 27.8383 4.09789C30.9604 5.78604 33.4928 8.38709 35.0968 11.5533C36.7008 14.7194 37.3001 18.2998 36.8144 21.8157" stroke="#11A900" stroke-width="4" stroke-linecap="round"/>
</svg>
