<svg width="469" height="357" viewBox="0 0 469 357" fill="none" xmlns="http://www.w3.org/2000/svg">
<circle cx="299.058" cy="26.3001" r="20" transform="rotate(66.5886 299.058 26.3001)" fill="#11A900" fill-opacity="0.1"/>
<circle cx="334.816" cy="108.891" r="20" transform="rotate(66.5886 334.816 108.891)" fill="#11A900" fill-opacity="0.1"/>
<circle cx="370.577" cy="191.482" r="20" transform="rotate(66.5886 370.577 191.482)" fill="#11A900" fill-opacity="0.1"/>
<circle cx="406.335" cy="274.073" r="20" transform="rotate(66.5886 406.335 274.073)" fill="#11A900" fill-opacity="0.1"/>
<circle cx="442.097" cy="356.663" r="20" transform="rotate(66.5886 442.097 356.663)" fill="#11A900" fill-opacity="0.1"/>
<circle cx="216.468" cy="62.0599" r="20" transform="rotate(66.5886 216.468 62.0599)" fill="#11A900" fill-opacity="0.1"/>
<circle cx="252.226" cy="144.651" r="20" transform="rotate(66.5886 252.226 144.651)" fill="#11A900" fill-opacity="0.1"/>
<circle cx="287.988" cy="227.242" r="20" transform="rotate(66.5886 287.988 227.242)" fill="#11A900" fill-opacity="0.1"/>
<circle cx="323.745" cy="309.832" r="20" transform="rotate(66.5886 323.745 309.832)" fill="#11A900" fill-opacity="0.1"/>
<circle cx="133.874" cy="97.8196" r="20" transform="rotate(66.5886 133.874 97.8196)" fill="#11A900" fill-opacity="0.1"/>
<circle cx="169.636" cy="180.41" r="20" transform="rotate(66.5886 169.636 180.41)" fill="#11A900" fill-opacity="0.1"/>
<circle cx="205.394" cy="263.001" r="20" transform="rotate(66.5886 205.394 263.001)" fill="#11A900" fill-opacity="0.1"/>
<circle cx="241.156" cy="345.592" r="20" transform="rotate(66.5886 241.156 345.592)" fill="#11A900" fill-opacity="0.1"/>
<circle cx="51.2845" cy="133.579" r="20" transform="rotate(66.5886 51.2845 133.579)" fill="#11A900" fill-opacity="0.1"/>
<circle cx="87.0462" cy="216.17" r="20" transform="rotate(66.5886 87.0462 216.17)" fill="#11A900" fill-opacity="0.1"/>
<circle cx="122.804" cy="298.761" r="20" transform="rotate(66.5886 122.804 298.761)" fill="#11A900" fill-opacity="0.1"/>
<circle cx="158.566" cy="381.352" r="20" transform="rotate(66.5886 158.566 381.352)" fill="#11A900" fill-opacity="0.1"/>
<circle cx="4.45246" cy="251.93" r="20" transform="rotate(66.5886 4.45246 251.93)" fill="#11A900" fill-opacity="0.1"/>
<circle cx="40.2142" cy="334.521" r="20" transform="rotate(66.5886 40.2142 334.521)" fill="#11A900" fill-opacity="0.1"/>
</svg>
