<svg width="204" height="469" viewBox="0 0 204 469" fill="none" xmlns="http://www.w3.org/2000/svg">
<ellipse cx="12.2333" cy="294.748" rx="10.0107" ry="10.0184" transform="rotate(-20.888 12.2333 294.748)" fill="#DAF9D9" fill-opacity="0.3"/>
<ellipse cx="40.8114" cy="369.627" rx="10.0107" ry="10.0184" transform="rotate(-20.888 40.8114 369.627)" fill="#DAF9D9" fill-opacity="0.3"/>
<ellipse cx="1.32706" cy="41.5554" rx="10.0107" ry="10.0184" transform="rotate(-20.888 1.32706 41.5554)" fill="#DAF9D9" fill-opacity="0.3"/>
<ellipse cx="29.9052" cy="116.435" rx="10.0107" ry="10.0184" transform="rotate(-20.888 29.9052 116.435)" fill="#DAF9D9" fill-opacity="0.3"/>
<ellipse cx="58.4833" cy="191.315" rx="10.0107" ry="10.0184" transform="rotate(-20.888 58.4833 191.315)" fill="#DAF9D9" fill-opacity="0.3"/>
<ellipse cx="87.0575" cy="266.194" rx="10.0107" ry="10.0184" transform="rotate(-20.888 87.0575 266.194)" fill="#DAF9D9" fill-opacity="0.3"/>
<ellipse cx="115.632" cy="341.073" rx="10.0107" ry="10.0184" transform="rotate(-20.888 115.632 341.073)" fill="#DAF9D9" fill-opacity="0.3"/>
<ellipse cx="76.1474" cy="13.0016" rx="10.0107" ry="10.0184" transform="rotate(-20.888 76.1474 13.0016)" fill="#DAF9D9" fill-opacity="0.3"/>
<ellipse cx="104.726" cy="87.881" rx="10.0107" ry="10.0184" transform="rotate(-20.888 104.726 87.881)" fill="#DAF9D9" fill-opacity="0.3"/>
<ellipse cx="133.304" cy="162.76" rx="10.0107" ry="10.0184" transform="rotate(-20.888 133.304 162.76)" fill="#DAF9D9" fill-opacity="0.3"/>
<ellipse cx="161.878" cy="237.64" rx="10.0107" ry="10.0184" transform="rotate(-20.888 161.878 237.64)" fill="#DAF9D9" fill-opacity="0.3"/>
<ellipse cx="190.454" cy="312.52" rx="10.0107" ry="10.0184" transform="rotate(-20.888 190.454 312.52)" fill="#DAF9D9" fill-opacity="0.3"/>
</svg>
