<svg width="470" height="441" viewBox="0 0 470 441" fill="none" xmlns="http://www.w3.org/2000/svg">
<path d="M-6.00862 333.256L27.8873 313.961L32.2112 322.774L8.30989 441.07L112.512 486.444L116.836 495.257L82.9398 514.552L1.17773 478.953L-17.5792 571.772L-51.4751 591.067L-55.799 582.254L-32.1315 464.091L-136.1 418.585L-140.424 409.772L-106.528 390.477L-24.7656 426.075L-6.00862 333.256Z" fill="#11A900" fill-opacity="0.08"/>
<path d="M225.089 246.48L242.509 281.983C244.979 287.019 246.3 291.744 246.471 296.156C255.926 299.579 262.877 305.822 267.324 314.887L286.473 353.916C291.25 363.652 292.132 373.78 289.119 384.3C286.024 394.652 279.957 402.401 270.918 407.546L135.334 484.727L46.3858 303.431L175.424 229.976C184.307 224.92 193.632 224.014 203.398 227.259C213.082 230.337 220.313 236.744 225.089 246.48ZM191.731 263.214L95.1864 318.172C94.0955 318.793 93.8383 319.691 94.4148 320.866L111.834 356.37C112.41 357.545 113.244 357.822 114.335 357.201L210.88 302.243C211.815 301.711 211.994 300.857 211.418 299.682L193.999 264.178C193.422 263.003 192.666 262.682 191.731 263.214ZM255.382 371.614L236.234 332.585C235.74 331.578 234.947 331.385 233.856 332.006L130.766 390.69C129.675 391.311 129.376 392.125 129.871 393.132L149.019 432.161C149.596 433.336 150.429 433.613 151.52 432.992L254.611 374.308C255.702 373.687 255.959 372.789 255.382 371.614Z" fill="#11A900" fill-opacity="0.08"/>
<path d="M374.892 232.395L479.094 277.768L483.418 286.581L449.522 305.876L367.76 270.277L349.003 363.096L315.107 382.392L310.783 373.579L334.451 255.416L230.482 209.909L226.158 201.096L260.054 181.801L341.816 217.4L381.139 56.3679L-138.386 350.629L-175.351 336.239L413.737 0.901889L538.396 254.983L502.781 243.346L411.362 57.0148L374.892 232.395Z" fill="#11A900" fill-opacity="0.08"/>
</svg>
