<?xml version="1.0" encoding="UTF-8"?>
<svg width="300" height="300" viewBox="0 0 300 300" fill="none" xmlns="http://www.w3.org/2000/svg">
    <g opacity="0.3">
        <circle cx="25" cy="25" r="5" fill="#2C412B"/>
        <circle cx="75" cy="25" r="5" fill="#2C412B"/>
        <circle cx="125" cy="25" r="5" fill="#2C412B"/>
        <circle cx="175" cy="25" r="5" fill="#2C412B"/>
        <circle cx="225" cy="25" r="5" fill="#2C412B"/>
        <circle cx="275" cy="25" r="5" fill="#2C412B"/>
        
        <circle cx="25" cy="75" r="5" fill="#2C412B"/>
        <circle cx="75" cy="75" r="5" fill="#2C412B"/>
        <circle cx="125" cy="75" r="5" fill="#2C412B"/>
        <circle cx="175" cy="75" r="5" fill="#2C412B"/>
        <circle cx="225" cy="75" r="5" fill="#2C412B"/>
        <circle cx="275" cy="75" r="5" fill="#2C412B"/>
        
        <circle cx="25" cy="125" r="5" fill="#2C412B"/>
        <circle cx="75" cy="125" r="5" fill="#2C412B"/>
        <circle cx="125" cy="125" r="5" fill="#2C412B"/>
        <circle cx="175" cy="125" r="5" fill="#2C412B"/>
        <circle cx="225" cy="125" r="5" fill="#2C412B"/>
        <circle cx="275" cy="125" r="5" fill="#2C412B"/>
        
        <circle cx="25" cy="175" r="5" fill="#2C412B"/>
        <circle cx="75" cy="175" r="5" fill="#2C412B"/>
        <circle cx="125" cy="175" r="5" fill="#2C412B"/>
        <circle cx="175" cy="175" r="5" fill="#2C412B"/>
        <circle cx="225" cy="175" r="5" fill="#2C412B"/>
        <circle cx="275" cy="175" r="5" fill="#2C412B"/>
        
        <circle cx="25" cy="225" r="5" fill="#2C412B"/>
        <circle cx="75" cy="225" r="5" fill="#2C412B"/>
        <circle cx="125" cy="225" r="5" fill="#2C412B"/>
        <circle cx="175" cy="225" r="5" fill="#2C412B"/>
        <circle cx="225" cy="225" r="5" fill="#2C412B"/>
        <circle cx="275" cy="225" r="5" fill="#2C412B"/>
        
        <circle cx="25" cy="275" r="5" fill="#2C412B"/>
        <circle cx="75" cy="275" r="5" fill="#2C412B"/>
        <circle cx="125" cy="275" r="5" fill="#2C412B"/>
        <circle cx="175" cy="275" r="5" fill="#2C412B"/>
        <circle cx="225" cy="275" r="5" fill="#2C412B"/>
        <circle cx="275" cy="275" r="5" fill="#2C412B"/>
    </g>
</svg>
