<svg width="596" height="599" viewBox="0 0 596 599" fill="none" xmlns="http://www.w3.org/2000/svg">
<circle cx="340.513" cy="28.2794" r="20" transform="rotate(43.936 340.513 28.2794)" fill="#11A900" fill-opacity="0.1"/>
<circle cx="405.324" cy="90.7247" r="20" transform="rotate(43.936 405.324 90.7247)" fill="#11A900" fill-opacity="0.1"/>
<circle cx="470.135" cy="153.174" r="20" transform="rotate(43.936 470.135 153.174)" fill="#11A900" fill-opacity="0.1"/>
<circle cx="534.945" cy="215.619" r="20" transform="rotate(43.936 534.945 215.619)" fill="#11A900" fill-opacity="0.1"/>
<circle cx="278.066" cy="93.088" r="20" transform="rotate(43.936 278.066 93.088)" fill="#11A900" fill-opacity="0.1"/>
<circle cx="342.877" cy="155.537" r="20" transform="rotate(43.936 342.877 155.537)" fill="#11A900" fill-opacity="0.1"/>
<circle cx="407.687" cy="217.983" r="20" transform="rotate(43.936 407.687 217.983)" fill="#11A900" fill-opacity="0.1"/>
<circle cx="472.498" cy="280.432" r="20" transform="rotate(43.936 472.498 280.432)" fill="#11A900" fill-opacity="0.1"/>
<circle cx="215.619" cy="157.9" r="20" transform="rotate(43.936 215.619 157.9)" fill="#11A900" fill-opacity="0.1"/>
<circle cx="280.43" cy="220.346" r="20" transform="rotate(43.936 280.43 220.346)" fill="#11A900" fill-opacity="0.1"/>
<circle cx="345.24" cy="282.795" r="20" transform="rotate(43.936 345.24 282.795)" fill="#11A900" fill-opacity="0.1"/>
<circle cx="410.051" cy="345.24" r="20" transform="rotate(43.936 410.051 345.24)" fill="#11A900" fill-opacity="0.1"/>
<circle cx="153.174" cy="222.709" r="20" transform="rotate(43.936 153.174 222.709)" fill="#11A900" fill-opacity="0.1"/>
<circle cx="217.982" cy="285.158" r="20" transform="rotate(43.936 217.982 285.158)" fill="#11A900" fill-opacity="0.1"/>
<circle cx="282.793" cy="347.604" r="20" transform="rotate(43.936 282.793 347.604)" fill="#11A900" fill-opacity="0.1"/>
<circle cx="347.603" cy="410.053" r="20" transform="rotate(43.936 347.603 410.053)" fill="#11A900" fill-opacity="0.1"/>
<circle cx="90.7264" cy="287.522" r="20" transform="rotate(43.936 90.7264 287.522)" fill="#11A900" fill-opacity="0.1"/>
<circle cx="155.537" cy="349.967" r="20" transform="rotate(43.936 155.537 349.967)" fill="#11A900" fill-opacity="0.1"/>
<circle cx="220.347" cy="412.416" r="20" transform="rotate(43.936 220.347 412.416)" fill="#11A900" fill-opacity="0.1"/>
<circle cx="285.156" cy="474.861" r="20" transform="rotate(43.936 285.156 474.861)" fill="#11A900" fill-opacity="0.1"/>
<circle cx="28.2791" cy="352.33" r="20" transform="rotate(43.936 28.2791 352.33)" fill="#11A900" fill-opacity="0.1"/>
<circle cx="93.0897" cy="414.779" r="20" transform="rotate(43.936 93.0897 414.779)" fill="#11A900" fill-opacity="0.1"/>
<circle cx="157.9" cy="477.225" r="20" transform="rotate(43.936 157.9 477.225)" fill="#11A900" fill-opacity="0.1"/>
<circle cx="222.711" cy="539.67" r="20" transform="rotate(43.936 222.711 539.67)" fill="#11A900" fill-opacity="0.1"/>
</svg>
