<svg width="281" height="333" viewBox="0 0 281 333" fill="none" xmlns="http://www.w3.org/2000/svg">
<ellipse cx="4.9186" cy="37.1091" rx="7.37188" ry="8.78272" transform="rotate(-6.70084 4.9186 37.1091)" fill="#DAF9D9"/>
<ellipse cx="13.1178" cy="106.891" rx="7.37188" ry="8.78272" transform="rotate(-6.70084 13.1178 106.891)" fill="#DAF9D9"/>
<ellipse cx="21.317" cy="176.673" rx="7.37188" ry="8.78272" transform="rotate(-6.70084 21.317 176.673)" fill="#DAF9D9"/>
<ellipse cx="29.5143" cy="246.454" rx="7.37188" ry="8.78272" transform="rotate(-6.70084 29.5143 246.454)" fill="#DAF9D9"/>
<ellipse cx="37.7135" cy="316.236" rx="7.37188" ry="8.78272" transform="rotate(-6.70084 37.7135 316.236)" fill="#DAF9D9"/>
<ellipse cx="63.4928" cy="30.2278" rx="7.37188" ry="8.78272" transform="rotate(-6.70084 63.4928 30.2278)" fill="#DAF9D9"/>
<ellipse cx="71.6901" cy="100.01" rx="7.37188" ry="8.78272" transform="rotate(-6.70084 71.6901 100.01)" fill="#DAF9D9"/>
<ellipse cx="79.8874" cy="169.791" rx="7.37188" ry="8.78272" transform="rotate(-6.70084 79.8874 169.791)" fill="#DAF9D9"/>
<ellipse cx="88.0866" cy="239.573" rx="7.37188" ry="8.78272" transform="rotate(-6.70084 88.0866 239.573)" fill="#DAF9D9"/>
<ellipse cx="96.2858" cy="309.355" rx="7.37188" ry="8.78272" transform="rotate(-6.70084 96.2858 309.355)" fill="#DAF9D9"/>
<ellipse cx="122.063" cy="23.3462" rx="7.37188" ry="8.78272" transform="rotate(-6.70084 122.063 23.3462)" fill="#DAF9D9"/>
<ellipse cx="130.262" cy="93.1279" rx="7.37188" ry="8.78272" transform="rotate(-6.70084 130.262 93.1279)" fill="#DAF9D9"/>
<ellipse cx="138.462" cy="162.91" rx="7.37188" ry="8.78272" transform="rotate(-6.70084 138.462 162.91)" fill="#DAF9D9"/>
<ellipse cx="146.659" cy="232.692" rx="7.37188" ry="8.78272" transform="rotate(-6.70084 146.659 232.692)" fill="#DAF9D9"/>
<ellipse cx="154.858" cy="302.473" rx="7.37188" ry="8.78272" transform="rotate(-6.70084 154.858 302.473)" fill="#DAF9D9"/>
<ellipse cx="180.637" cy="16.4646" rx="7.37188" ry="8.78272" transform="rotate(-6.70084 180.637 16.4646)" fill="#DAF9D9"/>
<ellipse cx="188.833" cy="86.2463" rx="7.37188" ry="8.78272" transform="rotate(-6.70084 188.833 86.2463)" fill="#DAF9D9"/>
<ellipse cx="197.032" cy="156.028" rx="7.37188" ry="8.78272" transform="rotate(-6.70084 197.032 156.028)" fill="#DAF9D9"/>
<ellipse cx="205.231" cy="225.81" rx="7.37188" ry="8.78272" transform="rotate(-6.70084 205.231 225.81)" fill="#DAF9D9"/>
<ellipse cx="213.43" cy="295.592" rx="7.37188" ry="8.78272" transform="rotate(-6.70084 213.43 295.592)" fill="#DAF9D9"/>
<ellipse cx="239.208" cy="9.58299" rx="7.37188" ry="8.78272" transform="rotate(-6.70084 239.208 9.58299)" fill="#DAF9D9"/>
<ellipse cx="247.407" cy="79.365" rx="7.37188" ry="8.78272" transform="rotate(-6.70084 247.407 79.365)" fill="#DAF9D9"/>
<ellipse cx="255.606" cy="149.147" rx="7.37188" ry="8.78272" transform="rotate(-6.70084 255.606 149.147)" fill="#DAF9D9"/>
<ellipse cx="263.805" cy="218.928" rx="7.37188" ry="8.78272" transform="rotate(-6.70084 263.805 218.928)" fill="#DAF9D9"/>
<ellipse cx="272.001" cy="288.71" rx="7.37188" ry="8.78272" transform="rotate(-6.70084 272.001 288.71)" fill="#DAF9D9"/>
</svg>
